<?xml version="1.0" encoding="UTF-8" standalone="no"?>
<svg viewBox="0 0 375 585" fill="currentColor" fill-rule="evenodd" role="img" aria-labelledby="b4sr7c2p0swq9i00w6scshgrdeuy0ke 5gx9bmv92tc0n8bft6czgia8o2os3eo" height="30"><title id="b4sr7c2p0swq9i00w6scshgrdeuy0ke">Fly</title>
<desc id="5gx9bmv92tc0n8bft6czgia8o2os3eo">The application delivery network</desc><path d="M188.57 485.391c.684.202 1.404.308 2.052.606.648.297 1.2.768 1.797 1.162l.114.099.584.517.999.897a229.96 229.96 0 0 1 12.204 11.957 191.31 191.31 0 0 1 8.071 9.053 144.315 144.315 0 0 1 4.868 6.161 108.91 108.91 0 0 1 4.299 6.191 78.875 78.875 0 0 1 3.396 5.798 56.359 56.359 0 0 1 2.48 5.336c1.261 3.153 2.204 6.464 2.521 9.855.059.626.095 1.255.109 1.884a43.377 43.377 0 0 1-.172 4.477c-.343 3.758-1.202 7.471-2.622 10.97a35.596 35.596 0 0 1-7.681 11.664 37.579 37.579 0 0 1-3.756 3.331 39.416 39.416 0 0 1-3.295 2.296 41.737 41.737 0 0 1-2.841 1.625c-5.661 2.955-11.936 4.631-18.275 5.257a60.787 60.787 0 0 1-6.195.286c-2.24-.01-4.481-.14-6.707-.401-3.709-.435-7.38-1.234-10.915-2.446-3.037-1.04-5.973-2.387-8.717-4.057-2.933-1.784-5.642-3.938-8.002-6.434a35.592 35.592 0 0 1-7.157-11.121c-1.35-3.327-2.194-6.848-2.567-10.416a43.058 43.058 0 0 1-.218-3.369 30.617 30.617 0 0 1 .034-2.693c.1-1.643.356-3.274.727-4.876.41-1.768.961-3.501 1.61-5.195a53.813 53.813 0 0 1 2.25-5.042 74.268 74.268 0 0 1 3.304-5.826 102.942 102.942 0 0 1 4.019-5.935c2.164-2.979 4.465-5.859 6.851-8.663a198.787 198.787 0 0 1 7.803-8.616 231.29 231.29 0 0 1 10.467-10.253c.812-.745 1.629-1.484 2.457-2.212l.115-.1c1.79-1.158 1.805-1.164 3.849-1.767h2.14zM191.954.081l5.031.117 2.23.141 13.644 1.102 18.83 2.635 1.37.303 18.264 4.491 5.15 1.516 5.848 1.99 7.12 2.665 5.525 2.31 8.585 4.025 4.802 2.42 9.722 5.661 2.973 1.787 13.262 9.583 3.239 2.82 9.138 8.262 7.848 8.336 2.153 2.376 9.206 12.106 1.379 2.17 7.091 11.846 1.99 3.779 3.999 8.804 4.163 10.259 1.379 3.984 4.438 16.018 3.466 21.658.603 6.732.554 9.671.044 1.407-.201 10.811-.128 2.034-.529 4.271-3.047 17.26-.459 2.099-7.02 21.683-6.519 15.628-8.3 16.439-14.87 25.672-7.652 11.562-9.264 13.722-6.679 9.068-13.036 17.274-8.933 11.133-13.22 15.954-9.235 10.691-14.354 16.014-9.034 9.817-26.704 27.626-.605.62-14.304 13.926-7.908 7.449-.486.448-.613.573-.784.554-.573.255-1.562.518-3.731-.157-.332-.113-2.029-1.269-.258-.241-.262-.24-1.066-.983a548.2 548.2 0 0 1-2.942-2.745l-.222-.212-26.203-25.775-8.107-8.328-20.734-22.083-4.94-5.355-24.998-28.942-6.995-8.59-22.012-28.394-2.182-2.893-16.727-24.402-4.536-7.252-12.01-20.435-3.497-6.336-10.497-21.943-1.66-4.298-6.029-16.795-2.085-7.142-1.694-6.916-1.434-7.549-1.147-8.444-.443-5.141L0 171.549l.043-1.642.248-5.197 2.093-21.015.494-2.712 4.778-20.977.101-.39.793-2.342 3.338-9.697 1.032-2.442 5.435-11.86 3.695-6.913 5.216-8.56 5.207-7.604 3.623-4.75 4.266-5.077 4.659-5.103 3.799-3.812 10.016-8.739 7.483-6.061 8.851-5.944 6.294-3.995 13.354-6.973 18.947-7.793.948-.377 16.844-4.878 6.611-1.461 9.093-1.815 6.167-.931 9.501-1.174 6.417-.562 12.793-.692.023-.001h.055l4.752-.051.48.001.044-.006.363-.004 4.098.081zm-10.799 29.801c-1.906.2-3.801.462-5.683.822a61.481 61.481 0 0 0-8.311 2.209 63.75 63.75 0 0 0-8.529 3.63 67.545 67.545 0 0 0-5.335 3.061c-12.89 8.196-22.725 20.453-29.979 33.75a125.804 125.804 0 0 0-3.422 6.77 145.482 145.482 0 0 0-3.584 8.298 165.228 165.228 0 0 0-3.944 11.118 189.133 189.133 0 0 0-3.813 13.955c-1.38 5.91-2.5 11.881-3.401 17.882-1.145 7.631-1.932 15.313-2.426 23.012a328.872 328.872 0 0 0-.599 14.691c-.108 5.635-.066 11.269.331 16.893.93 13.169 3.199 26.208 6.169 39.061 3.743 16.195 8.616 32.132 14.119 47.81 6.914 19.699 14.841 39.036 23.408 58.07 10.59 23.53 22.186 46.592 34.502 69.264l.935 1.707V29.84l-.438.042zm48.708.935c8.574 1.772 17.024 4.133 25.252 7.136 11.714 4.276 22.969 9.857 33.323 16.819 14.029 9.434 26.324 21.412 35.833 35.409 5.614 8.263 10.256 17.176 13.874 26.486 5.332 13.723 8.428 28.265 9.662 42.919.323 3.842.522 7.694.605 11.548.077 3.587.056 7.181-.227 10.759-.635 8.022-2.313 15.927-4.543 23.648-1.826 6.322-4.058 12.527-6.551 18.615-3.103 7.576-6.605 14.984-10.393 22.24-8.412 16.111-18.107 31.519-28.49 46.427-12.795 18.372-26.628 36.012-41.073 53.112-15.103 17.88-30.888 35.185-47.19 51.977-.694.716-1.391 1.429-2.091 2.14 11.555-21.542 22.443-43.443 32.434-65.755 5.561-12.418 10.843-24.961 15.766-37.646 5.405-13.929 10.375-28.029 14.696-42.333 3.234-10.71 6.09-21.529 8.441-32.468 2.016-9.377 3.606-18.865 4.58-28.408.424-4.154.73-8.321.873-12.494.131-3.812.121-7.627.059-11.44-.078-4.88-.258-9.759-.552-14.631-1.182-19.625-4.18-39.189-9.962-58.008a171.302 171.302 0 0 0-4.176-11.982 157.64 157.64 0 0 0-3.797-8.924c-7.382-15.95-17.708-30.879-31.671-41.751a84.6 84.6 0 0 0-4.682-3.395z"></path></svg>
